<svg width="260" height="261" viewBox="0 0 260 261" fill="none" xmlns="http://www.w3.org/2000/svg">
<path d="M80.3306 190.534L81.5457 190.424L81.4348 189.2L80.2121 189.319L80.3306 190.534ZM34.3969 176.668L35.4958 176.138L34.3969 176.668ZM137.861 214.121L138.644 213.184L137.699 212.395L136.918 213.347L137.861 214.121ZM176.116 226.153L175.586 225.054L176.116 226.153ZM189.981 180.217L189.871 179.002L188.648 179.113L188.767 180.336L189.981 180.217ZM213.569 122.687L212.633 121.905L211.843 122.849L212.795 123.63L213.569 122.687ZM225.602 84.4324L226.7 83.9023L225.602 84.4324ZM179.659 70.5679L178.444 70.678L178.555 71.9016L179.777 71.7822L179.659 70.5679ZM157.467 28.0241L157.783 26.8456L157.467 28.0241ZM122.132 46.9787L121.35 47.9149L122.294 48.7043L123.075 47.7525L122.132 46.9787ZM83.8804 34.9486L84.4105 36.0475L83.8804 34.9486ZM70.0157 80.8892L70.1258 82.1043L71.3494 81.9934L71.23 80.7706L70.0157 80.8892ZM46.4272 138.416L47.3634 139.199L48.1528 138.254L47.201 137.473L46.4272 138.416ZM80.2121 189.319C68.8017 190.433 58.8861 189.863 51.1772 187.625C43.4685 185.387 38.0943 181.525 35.4958 176.138L33.298 177.198C36.3 183.422 42.3902 187.615 50.4969 189.968C58.6035 192.322 68.8545 192.879 80.4491 191.748L80.2121 189.319ZM102.838 231.901C97.0609 230.353 92.2638 225.793 88.6269 218.636C84.9899 211.479 82.5801 201.843 81.5457 190.424L79.1155 190.644C80.1667 202.247 82.6269 212.216 86.4515 219.742C90.2762 227.268 95.5323 232.47 102.207 234.258L102.838 231.901ZM136.918 213.347C131.039 220.514 125.035 225.859 119.223 229.054C113.419 232.244 107.882 233.253 102.838 231.901L102.207 234.258C108.028 235.818 114.22 234.588 120.399 231.192C126.571 227.8 132.804 222.21 138.805 214.894L136.918 213.347ZM175.586 225.054C170.883 227.323 165.255 227.365 158.958 225.314C152.653 223.26 145.757 219.129 138.644 213.184L137.079 215.057C144.339 221.124 151.506 225.453 158.202 227.634C164.906 229.818 171.218 229.871 176.646 227.252L175.586 225.054ZM188.767 180.336C189.881 191.747 189.311 201.663 187.073 209.372C184.835 217.081 180.973 222.456 175.586 225.054L176.646 227.252C182.87 224.25 187.063 218.16 189.416 210.052C191.77 201.946 192.327 191.694 191.196 180.099L188.767 180.336ZM231.349 157.71C229.801 163.487 225.241 168.284 218.084 171.921C210.927 175.558 201.291 177.968 189.871 179.002L190.091 181.433C201.695 180.381 211.663 177.921 219.19 174.097C226.716 170.272 231.918 165.016 233.706 158.341L231.349 157.71ZM212.795 123.63C219.962 129.51 225.308 135.514 228.502 141.325C231.692 147.129 232.701 152.666 231.349 157.71L233.706 158.341C235.266 152.52 234.037 146.328 230.64 140.149C227.248 133.978 221.658 127.745 214.343 121.744L212.795 123.63ZM224.503 84.9625C226.771 89.6652 226.813 95.2937 224.762 101.591C222.708 107.896 218.577 114.791 212.633 121.905L214.505 123.469C220.572 116.209 224.901 109.043 227.082 102.347C229.266 95.6425 229.319 89.3305 226.7 83.9023L224.503 84.9625ZM179.777 71.7822C191.19 70.6677 201.108 71.2371 208.818 73.4749C216.529 75.7127 221.904 79.5751 224.503 84.9625L226.7 83.9023C223.698 77.6783 217.607 73.4849 209.498 71.1315C201.39 68.7783 191.137 68.2212 179.54 69.3537L179.777 71.7822ZM157.151 29.2026C162.929 30.7506 167.726 35.3103 171.362 42.4668C174.999 49.6234 177.409 59.2593 178.444 70.678L180.874 70.4578C179.823 58.8548 177.362 48.887 173.538 41.3613C169.713 33.8353 164.457 28.634 157.783 26.8456L157.151 29.2026ZM123.075 47.7525C128.954 40.5868 134.957 35.2425 140.768 32.0491C146.571 28.8596 152.108 27.8513 157.151 29.2026L157.783 26.8456C151.962 25.2859 145.771 26.515 139.593 29.9106C133.422 33.3023 127.189 38.8908 121.189 46.2048L123.075 47.7525ZM84.4105 36.0475C89.1128 33.7791 94.7408 33.7367 101.037 35.7876C107.342 37.841 114.237 41.9716 121.35 47.9149L122.914 46.0425C115.654 39.9762 108.489 35.6483 101.793 33.4674C95.0896 31.284 88.7781 31.2314 83.3503 33.8497L84.4105 36.0475ZM71.23 80.7706C70.1157 69.3585 70.6852 59.4414 72.9231 51.7313C75.1609 44.0213 79.0232 38.6463 84.4105 36.0475L83.3503 33.8497C77.1264 36.8521 72.9331 42.9431 70.5797 51.0511C68.2264 59.1588 67.6692 69.4114 68.8014 81.0077L71.23 80.7706ZM28.6507 103.397C30.1987 97.6195 34.7584 92.8225 41.9148 89.1856C49.0713 85.5487 58.7072 83.1389 70.1258 82.1043L69.9056 79.6741C58.3027 80.7254 48.335 83.1858 40.8093 87.0103C33.2834 90.835 28.0821 96.0909 26.2938 102.765L28.6507 103.397ZM47.201 137.473C40.0351 131.594 34.6908 125.591 31.4973 119.78C28.3078 113.977 27.2995 108.44 28.6507 103.397L26.2938 102.765C24.734 108.586 25.9632 114.777 29.3589 120.955C32.7505 127.127 38.3392 133.359 45.6533 139.36L47.201 137.473ZM35.4958 176.138C33.2274 171.436 33.185 165.808 35.2359 159.511C37.2894 153.207 41.42 146.311 47.3634 139.199L45.491 137.634C39.4246 144.894 35.0966 152.06 32.9157 158.755C30.7323 165.459 30.6796 171.77 33.298 177.198L35.4958 176.138Z" fill="white"/>
<path d="M108.548 120.949L105.363 113.306L114.224 109.614L117.409 117.256L121.101 115.718L113.408 97.2567L109.716 98.7954L112.824 106.254L103.962 109.947L100.854 102.488L97.162 104.027L104.855 122.488L108.548 120.949ZM139.851 98.5437C139.719 98.1222 139.587 97.7007 139.402 97.2576C137.048 91.6085 131.561 89.2581 126.318 91.443C121.076 93.6279 118.882 99.1788 121.236 104.828C123.59 110.477 129.077 112.827 134.32 110.643C138.566 108.873 140.901 105.43 140.461 101.15L136.473 102.812C136.427 104.781 135.366 106.393 133.113 107.332C130.012 108.624 127.159 107.603 125.378 104.575L139.851 98.5437ZM127.672 94.6922C130.626 93.4612 133.426 94.461 135.162 97.3779L124.307 101.902C123.457 98.6155 124.682 95.9385 127.672 94.6922ZM74.8147 155.591L71.1224 157.13L78.8159 175.591L82.5081 174.052L78.4613 164.342L91.3325 170.375L96.0216 168.42L82.4951 162.271L87.6636 150.236L82.7529 152.283L78.2305 163.788L74.8147 155.591ZM106.614 174.84L101.614 162.84C103.869 164.197 106.503 164.486 108.977 163.455C114.035 161.347 116.192 155.811 113.837 150.162C111.483 144.513 106.034 142.147 100.975 144.255C98.5017 145.286 96.8526 147.36 96.2281 149.917L95.0741 147.148L91.3819 148.687L102.922 176.378L106.614 174.84ZM107.118 160.243C103.906 161.581 100.475 160.108 98.9208 156.379C97.3668 152.649 98.7358 149.176 101.948 147.837C105.16 146.498 108.591 147.972 110.145 151.701C111.699 155.43 110.33 158.904 107.118 160.243ZM135.081 142.783C134.948 142.361 134.816 141.94 134.631 141.497C132.277 135.848 126.791 133.497 121.548 135.682C116.305 137.867 114.111 143.418 116.466 149.067C118.82 154.716 124.306 157.067 129.549 154.882C133.795 153.112 136.13 149.669 135.69 145.389L131.702 147.051C131.656 149.02 130.595 150.632 128.343 151.571C125.241 152.863 122.389 151.842 120.607 148.814L135.081 142.783ZM122.902 138.931C125.856 137.7 128.656 138.7 130.391 141.617L119.536 146.141C118.687 142.855 119.911 140.178 122.902 138.931ZM138.996 146.525L142.488 154.906L145.885 153.491L143.808 148.506L157.358 142.859L159.436 147.844L162.832 146.428L159.34 138.047L156.755 139.124L150.477 124.06L136.262 129.983C140.697 140.832 141.005 143.651 140.805 145.771L138.996 146.525ZM143.663 139.423C143.192 137.669 142.386 135.318 141.038 131.98L148.201 128.995L153.063 140.662L144.534 144.217C144.518 143.14 144.26 141.688 143.663 139.423ZM181.086 132.971L173.392 114.51L168.703 116.464L166.387 134.72L160.248 119.988L156.703 121.465L164.397 139.926L169.086 137.972L171.402 119.716L177.541 134.448L181.086 132.971ZM194.029 127.577L187.751 112.513L193.733 110.02L192.317 106.623L176.662 113.147L178.078 116.544L184.059 114.051L190.337 129.116L194.029 127.577Z" fill="white"/>
</svg>
