<svg width="234" height="154" viewBox="0 0 234 154" fill="none" xmlns="http://www.w3.org/2000/svg">
<path d="M96.2346 76.3187C98.919 75.6771 100.143 73.6572 99.3433 70.3115L98.1438 65.2928C97.3488 61.9665 95.3391 60.699 92.6547 61.3406C89.9703 61.9822 88.751 64.0215 89.546 67.3478L90.7455 72.3664C91.5451 75.7122 93.5502 76.9603 96.2346 76.3187ZM95.8069 74.5291C94.3285 74.8824 93.2533 74.2552 92.6907 71.9015L91.4912 66.8829C90.9333 64.5486 91.6235 63.4788 93.0824 63.1302C94.5608 62.7768 95.6407 63.4235 96.1986 65.7578L97.3981 70.7764C97.9607 73.1301 97.2658 74.1804 95.8069 74.5291ZM107.039 73.5308L105.142 65.5943L108.293 64.8412L107.865 63.0516L99.6177 65.0228L100.045 66.8124L103.197 66.0592L105.094 73.9957L107.039 73.5308ZM116.565 72.4056L117.812 60.6743L115.866 61.1392L115.013 69.9592L110.245 62.4829L108.3 62.9478L114.731 72.8232C114.472 74.4892 113.982 75.367 112.757 75.6599C112.29 75.7715 111.819 75.7812 111.422 75.7528L111.831 77.4646C112.228 77.493 112.796 77.46 113.341 77.3299C115.734 76.758 116.301 74.9157 116.565 72.4056ZM126.06 63.3092C125.713 63.4948 125.162 63.7704 124.209 63.9982C122.614 64.3795 121.585 63.9468 121.167 62.1961L120.641 59.998L118.696 60.4629L119.226 62.6804C119.928 65.6177 121.622 66.5084 124.481 65.825C125.162 65.6623 125.975 65.3651 126.478 65.0599L127.343 68.678L129.288 68.213L126.963 58.487L125.018 58.9519L126.06 63.3092ZM140.792 65.4634L138.468 55.7373L135.997 56.3278L133.398 65.1539L131.543 57.3925L129.675 57.8388L132 67.5648L134.47 66.9744L137.07 58.1483L138.925 65.9097L140.792 65.4634ZM149.024 57.3064L151.047 56.8229C150.232 54.4472 147.838 53.2921 145.271 53.9058C142.489 54.5706 140.924 57.1448 141.636 60.121C142.347 63.0972 144.907 64.6857 147.688 64.0209C150.334 63.3886 151.967 61.1886 151.509 58.5838L149.486 59.0673C149.677 60.7283 148.68 61.8919 147.26 62.2313C145.607 62.6265 144.051 61.6207 143.581 59.6561C143.111 57.6914 144.045 56.0906 145.698 55.6954C147.099 55.3606 148.476 55.8746 149.024 57.3064ZM161.562 57.0447C161.102 55.1189 159.404 54.1263 157.051 54.6889L154.891 55.2049L154.124 51.9953L152.179 52.4602L154.504 62.1863L158.628 61.2007C161.059 60.6195 162.022 58.9705 161.562 57.0447ZM157.286 56.36C158.608 56.0439 159.356 56.4203 159.612 57.4902C159.863 58.5406 159.385 59.2924 158.062 59.6085L156.058 60.0874L155.282 56.8389L157.286 56.36ZM170.556 58.3496L169.594 54.323L174.262 53.2072L175.225 57.2338L177.17 56.7689L174.845 47.0428L172.9 47.5077L173.839 51.4371L169.171 52.5529L168.232 48.6235L166.286 49.0885L168.611 58.8145L170.556 58.3496ZM182.748 55.6412C184.149 55.3065 185.264 54.4643 185.599 53.027L185.989 54.661L187.896 54.2054L186.269 47.3971C185.729 45.1407 183.579 44.7497 181.479 45.2518C179.339 45.7632 177.544 47.1999 178.143 49.7092L180.166 49.2257C179.864 47.9613 180.586 47.1102 181.851 46.808C183.037 46.5244 184.077 46.8311 184.305 47.7842C184.835 50.0018 177.777 49.4677 178.781 53.6694C179.242 55.5951 181.017 56.055 182.748 55.6412ZM180.738 53.0784C180.347 51.4445 183.401 51.1463 184.864 49.9536L185.032 50.6538C185.436 52.3462 184.245 53.5563 182.747 53.9142C181.755 54.1514 180.938 53.9149 180.738 53.0784ZM93.7426 95.2156L91.8458 87.2792L96.2419 86.2285L98.1388 94.1649L100.084 93.7L97.7594 83.9739L89.4728 85.9545L91.7974 95.6806L93.7426 95.2156ZM107.088 92.2315C109.909 91.5574 111.512 88.9739 110.801 85.9977C110.09 83.0215 107.491 81.4423 104.671 82.1164C101.85 82.7906 100.247 85.374 100.958 88.3502C101.67 91.3264 104.268 92.9057 107.088 92.2315ZM106.661 90.4419C104.968 90.8464 103.373 89.85 102.903 87.8853C102.434 85.9206 103.406 84.3105 105.099 83.906C106.791 83.5015 108.386 84.498 108.856 86.4626C109.325 88.4273 108.353 90.0374 106.661 90.4419ZM113.978 90.3792L118.958 89.189C120.981 88.7055 122.003 87.4742 121.556 85.6068C121.263 84.3813 120.397 83.766 119.243 83.6716C119.996 83.1215 120.344 82.3392 120.097 81.3083C119.693 79.6159 118.267 79.0724 116.478 79.5001L111.654 80.6531L113.978 90.3792ZM116.267 81.1133C117.473 80.8251 118.072 81.0932 118.281 81.9686C118.476 82.7856 118.077 83.3538 116.871 83.6421L114.479 84.214L113.874 81.6852L116.267 81.1133ZM117.614 85.0275C118.703 84.7671 119.383 85.1186 119.597 86.0134C119.811 86.9082 119.363 87.5293 118.274 87.7897L115.492 88.4545L114.832 85.6923L117.614 85.0275ZM131.661 82.6982C131.201 80.7724 129.504 79.7798 127.15 80.3423L124.991 80.8584L124.224 77.6488L122.279 78.1137L124.603 87.8398L128.727 86.8541C131.158 86.273 132.122 84.6239 131.661 82.6982ZM135.866 85.1479L133.541 75.4218L131.596 75.8867L133.921 85.6128L135.866 85.1479ZM127.385 82.0135C128.708 81.6973 129.456 82.0738 129.711 83.1436C129.962 84.194 129.484 84.9458 128.161 85.262L126.158 85.7409L125.381 82.4923L127.385 82.0135ZM138.367 74.2685L136.266 74.7706L138.59 84.4967L151.818 81.3352L149.493 71.6092L147.548 72.0741L149.445 80.0105L145.749 80.8939L143.852 72.9574L141.907 73.4224L143.804 81.3588L140.264 82.205L138.367 74.2685ZM162.361 74.3737C162.329 74.1551 162.298 73.9364 162.242 73.703C161.53 70.7268 159.01 69.129 156.248 69.7892C153.485 70.4493 151.96 73.0142 152.671 75.9904C153.383 78.9666 155.903 80.5645 158.665 79.9043C160.902 79.3696 162.33 77.8564 162.454 75.7087L160.353 76.2108C160.173 77.1791 159.521 77.8903 158.334 78.1739C156.7 78.5644 155.374 77.8327 154.736 76.1962L162.361 74.3737ZM156.657 71.5009C158.213 71.129 159.515 71.8459 160.139 73.4241L154.42 74.791C154.263 73.1012 155.081 71.8775 156.657 71.5009ZM167.37 77.618L166.408 73.5914L171.077 72.4756L172.039 76.5022L173.984 76.0373L171.66 66.3112L169.714 66.7762L170.653 70.7055L165.985 71.8213L165.046 67.892L163.101 68.3569L165.425 78.083L167.37 77.618ZM185.507 73.2832L183.183 63.5571L180.712 64.1476L178.113 72.9736L176.258 65.2122L174.39 65.6585L176.715 75.3846L179.185 74.7942L181.785 65.9681L183.64 73.7295L185.507 73.2832ZM196.04 66.324C196.009 66.1054 195.977 65.8868 195.921 65.6533C195.21 62.6772 192.689 61.0793 189.927 61.7395C187.165 62.3997 185.639 64.9646 186.351 67.9408C187.062 70.9169 189.583 72.5148 192.345 71.8546C194.582 71.3199 196.009 69.8067 196.133 67.659L194.032 68.1611C193.853 69.1294 193.2 69.8406 192.013 70.1242C190.38 70.5148 189.053 69.783 188.415 68.1465L196.04 66.324ZM190.336 63.4513C191.893 63.0793 193.195 63.7962 193.819 65.3744L188.1 66.7413C187.943 65.0515 188.761 63.8279 190.336 63.4513Z" fill="#ABD52E"/>
<path d="M156.141 12.4275L156.489 13.8866L156.49 13.8864L156.141 12.4275ZM156.103 12.4367L155.755 10.9776L155.754 10.9779L156.103 12.4367ZM156.065 12.4458L156.413 13.9047L156.414 13.9046L156.065 12.4458ZM71.5473 32.6461L71.896 34.105L71.5473 32.6461ZM76.4906 53.4673L76.8393 54.9262L76.1462 52.0074L76.4906 53.4673ZM38.1452 62.6322L38.4939 64.0911L38.1452 62.6322ZM43.1198 83.4459L43.4685 84.9049L43.1198 83.4459ZM64.5722 78.3187L64.9226 79.7772L64.2235 76.8598L64.5722 78.3187ZM25.3308 109.7L25.6795 111.159L25.6795 111.159L25.3308 109.7ZM91.3045 115.935L91.6724 117.389L90.9558 114.476L91.3045 115.935ZM96.4188 136.714L96.7674 138.173L96.4188 136.714ZM180.662 116.58L180.322 115.119L180.313 115.121L180.662 116.58ZM181.29 116.43L180.941 114.971L180.933 114.973L181.29 116.43ZM182.268 116.196L182.617 117.655L182.268 116.196ZM158.07 12.0048L157.775 10.534L158.07 12.0048ZM182.279 116.177L181.895 114.727L182.279 116.177ZM219.115 52.3832C225.689 79.8903 209.078 107.517 181.895 114.727L182.664 117.627C211.417 110.001 228.987 80.7803 222.033 51.6858L219.115 52.3832ZM158.364 13.4756C185.653 8.01139 212.591 25.0886 219.115 52.3832L222.033 51.6858C215.133 22.8159 186.64 4.75413 157.775 10.534L158.364 13.4756ZM156.49 13.8864L158.374 13.4361L157.677 10.5183L155.792 10.9686L156.49 13.8864ZM156.451 13.8957L156.489 13.8866L155.793 10.9685L155.755 10.9776L156.451 13.8957ZM156.414 13.9046L156.452 13.8955L155.754 10.9779L155.715 10.9871L156.414 13.9046ZM71.896 34.105L156.413 13.9047L155.716 10.9869L71.1986 31.1872L71.896 34.105ZM65.0867 45.1916C63.9056 40.2498 66.9542 35.2862 71.896 34.105L71.1986 31.1872C64.6453 32.7535 60.6026 39.3357 62.1689 45.889L65.0867 45.1916ZM76.1462 52.0074C71.2134 53.171 66.2657 50.1244 65.0867 45.1916L62.1689 45.889C63.7323 52.4304 70.2934 56.4703 76.835 54.9273L76.1462 52.0074ZM38.4939 64.0911L76.8393 54.9262L76.1419 52.0084L37.7965 61.1733L38.4939 64.0911ZM31.6845 75.1777C30.5034 70.2359 33.552 65.2722 38.4939 64.0911L37.7965 61.1733C31.2432 62.7396 27.2004 69.3218 28.7667 75.8751L31.6845 75.1777ZM42.7711 81.987C37.8293 83.1682 32.8656 80.1195 31.6845 75.1777L28.7667 75.8751C30.333 82.4284 36.9152 86.4711 43.4685 84.9049L42.7711 81.987ZM64.2235 76.8598L42.7711 81.987L43.4685 84.9049L64.9209 79.7776L64.2235 76.8598ZM58.1241 90.8612C56.9438 85.923 59.9872 80.9629 64.9226 79.7772L64.2218 76.8602C57.6769 78.4326 53.6411 85.01 55.2063 91.5586L58.1241 90.8612ZM69.2107 97.6705C64.2689 98.8517 59.3052 95.803 58.1241 90.8612L55.2063 91.5586C56.7726 98.1119 63.3548 102.155 69.9081 100.588L69.2107 97.6705ZM25.6795 111.159L69.9081 100.588L69.2107 97.6705L24.9821 108.242L25.6795 111.159ZM18.8702 122.246C17.689 117.304 20.7377 112.34 25.6795 111.159L24.9821 108.242C18.4288 109.808 14.3861 116.39 15.9524 122.943L18.8702 122.246ZM29.9568 129.055C25.015 130.236 20.0513 127.188 18.8702 122.246L15.9524 122.943C17.5187 129.497 24.1009 133.539 30.6542 131.973L29.9568 129.055ZM90.9558 114.476L29.9568 129.055L30.6542 131.973L91.6532 117.394L90.9558 114.476ZM84.9835 128.446C83.8119 123.545 86.8018 118.621 91.6724 117.389L90.9366 114.481C84.4768 116.115 80.512 122.643 82.0656 129.144L84.9835 128.446ZM96.0701 135.255C91.1282 136.437 86.1646 133.388 84.9835 128.446L82.0656 129.144C83.6319 135.697 90.2141 139.74 96.7674 138.173L96.0701 135.255ZM180.313 115.121L96.0701 135.255L96.7674 138.173L181.011 118.039L180.313 115.121ZM180.627 115.047C180.526 115.071 180.424 115.095 180.322 115.119L181.002 118.041C181.11 118.016 181.217 117.99 181.325 117.964L180.627 115.047ZM180.933 114.973C180.831 114.998 180.729 115.022 180.627 115.047L181.325 117.964C181.432 117.939 181.54 117.913 181.647 117.886L180.933 114.973ZM181.919 114.737L180.941 114.971L181.639 117.888L182.617 117.655L181.919 114.737ZM182.617 117.655C183.427 117.461 183.926 116.648 183.733 115.838L180.815 116.535C180.623 115.734 181.118 114.928 181.919 114.737L182.617 117.655ZM159.507 11.6422C159.312 10.8265 158.492 10.3233 157.677 10.5183L158.374 13.4361C157.578 13.6263 156.779 13.1354 156.589 12.3396L159.507 11.6422ZM157.775 10.534C158.547 10.3795 159.319 10.8575 159.507 11.6422L156.589 12.3396C156.781 13.1438 157.573 13.634 158.364 13.4756L157.775 10.534ZM181.895 114.727C181.114 114.934 180.622 115.729 180.815 116.535L183.733 115.838C183.923 116.635 183.437 117.422 182.664 117.627L181.895 114.727Z" fill="#ABD52E"/>
</svg>
